<?xml version="1.0" ?><svg data-name="Layer 2" id="Layer_2" viewBox="0 0 2010 2010" xmlns="http://www.w3.org/2000/svg" xmlns:xlink="http://www.w3.org/1999/xlink"><defs><style>.cls-1{fill:url(#linear-gradient);}.cls-2{fill:url(#linear-gradient-2);}.cls-3{fill:url(#linear-gradient-3);}.cls-4{fill:url(#linear-gradient-4);}.cls-5{fill:url(#linear-gradient-5);}.cls-6{fill:url(#linear-gradient-6);}</style><linearGradient gradientUnits="userSpaceOnUse" id="linear-gradient" x1="1590.84" x2="580.65" y1="97.4" y2="1986.58"><stop offset="0" stop-color="#69bbff"/><stop offset="1" stop-color="#1798ff"/></linearGradient><linearGradient id="linear-gradient-2" x1="1914.78" x2="904.6" xlink:href="#linear-gradient" y1="270.62" y2="2159.8"/><linearGradient id="linear-gradient-3" x1="1369.46" x2="359.27" xlink:href="#linear-gradient" y1="-20.98" y2="1868.2"/><linearGradient id="linear-gradient-4" x1="1703.63" x2="693.45" xlink:href="#linear-gradient" y1="157.71" y2="2046.89"/><linearGradient id="linear-gradient-5" x1="2040.53" x2="1030.34" xlink:href="#linear-gradient" y1="337.86" y2="2227.04"/><linearGradient gradientUnits="userSpaceOnUse" id="linear-gradient-6" x1="323.94" x2="1872.02" y1="1496.84" y2="-90.59"><stop offset="0" stop-color="#ffe88a"/><stop offset="1" stop-color="#ffe4c5"/></linearGradient></defs><path class="cls-1" d="M664.52,1824.17h0c-48.65-28.09-54.45-96.05-11.26-132l117.49-97.75a24.39,24.39,0,0,1,27.79-2.37h0a24.39,24.39,0,0,1,11.84,25.25l-25.91,150.63C774.93,1823.31,713.17,1852.26,664.52,1824.17Z"/><path class="cls-2" d="M1081.08,1824.17h0c-48.65-28.09-54.45-96.05-11.26-132l117.49-97.75a24.39,24.39,0,0,1,27.79-2.37h0a24.39,24.39,0,0,1,11.84,25.25L1201,1767.94C1191.5,1823.31,1129.74,1852.26,1081.08,1824.17Z"/><path class="cls-3" d="M484.62,1628.21h0c-48.65-28.09-54.46-96-11.27-132l117.49-97.75a24.39,24.39,0,0,1,27.79-2.37h0a24.38,24.38,0,0,1,11.84,25.25L604.56,1572C595,1627.35,533.28,1656.3,484.62,1628.21Z"/><path class="cls-4" d="M914.35,1628.21h0c-48.66-28.09-54.46-96-11.27-132l117.49-97.75a24.39,24.39,0,0,1,27.79-2.37h0a24.38,24.38,0,0,1,11.84,25.25L1034.29,1572C1024.76,1627.35,963,1656.3,914.35,1628.21Z"/><path class="cls-5" d="M1347.57,1628.21h0c-48.66-28.09-54.46-96-11.27-132l117.49-97.75a24.39,24.39,0,0,1,27.79-2.37h0a24.38,24.38,0,0,1,11.84,25.25L1467.51,1572C1458,1627.35,1396.23,1656.3,1347.57,1628.21Z"/><path class="cls-6" d="M997.23,1318.85a572.11,572.11,0,0,1-553.58-427,75,75,0,0,1,99.79-88.93,294.34,294.34,0,0,0,41.21,12.67A290.37,290.37,0,0,0,925.43,442.69a292.09,292.09,0,0,0-82-126.1A75,75,0,0,1,878,187.51a566.92,566.92,0,0,1,246.35,2h0A571.87,571.87,0,0,1,997.23,1318.85Z"/></svg>