<?xml version="1.0" ?><svg data-name="Layer 2" id="Layer_2" viewBox="0 0 2010 2010" xmlns="http://www.w3.org/2000/svg" xmlns:xlink="http://www.w3.org/1999/xlink"><defs><style>.cls-1{fill:url(#linear-gradient);}.cls-2{fill:url(#linear-gradient-2);}.cls-3{opacity:0.1;fill:url(#linear-gradient-3);}.cls-4{fill:url(#linear-gradient-4);}</style><linearGradient gradientUnits="userSpaceOnUse" id="linear-gradient" x1="-117.73" x2="1367.43" y1="1780.52" y2="-616.84"><stop offset="0.06" stop-color="#ff6800"/><stop offset="1" stop-color="#fff100"/></linearGradient><linearGradient gradientUnits="userSpaceOnUse" id="linear-gradient-2" x1="438.5" x2="1662" y1="1913.19" y2="191.55"><stop offset="0" stop-color="#69bbff"/><stop offset="1" stop-color="#9de0f4"/></linearGradient><linearGradient gradientUnits="userSpaceOnUse" id="linear-gradient-3" x1="861.13" x2="1334.59" y1="1774.25" y2="907.1"><stop offset="0" stop-color="#1e2121"/><stop offset="1" stop-color="#1e2121" stop-opacity="0"/></linearGradient><linearGradient id="linear-gradient-4" x1="635.33" x2="1321.37" xlink:href="#linear-gradient" y1="2152.37" y2="1021.54"/></defs><path class="cls-1" d="M373.6,987.81a74.76,74.76,0,0,1-52.5-21.45A442.4,442.4,0,0,1,188,649.63c0-12.72.55-25.61,1.64-38.31a75,75,0,0,1,107-61.29,170.07,170.07,0,0,0,73.76,16.6c94.67,0,171.69-77,171.69-171.7a169.84,169.84,0,0,0-18.47-77.57,75,75,0,0,1,58.62-108.5,449.68,449.68,0,0,1,49.23-2.71A443.72,443.72,0,0,1,1057.23,525a75,75,0,0,1-37.31,87.55,447.87,447.87,0,0,0-214,245,75,75,0,0,1-94.51,45.72A283.47,283.47,0,0,0,425.45,967,74.79,74.79,0,0,1,373.6,987.81Z"/><path class="cls-2" d="M1775.08,776.33a596.71,596.71,0,0,0-772.1-321c-17.88,7.21-35.52,15.35-52.42,24.18A598.85,598.85,0,0,0,691.31,744.21,435.53,435.53,0,0,0,621,738.53,431,431,0,0,0,321.75,858.61a437.06,437.06,0,0,0-47.61,53.75A432.87,432.87,0,0,0,621,1604.51h604.81a596.4,596.4,0,0,0,549.24-828.18Z"/><polygon class="cls-3" points="947.01 1277.76 713.29 1604.51 1194.32 1604.51 1214.57 1498.43 978.66 1502.87 947.01 1277.76"/><path class="cls-4" d="M964.9,1241.32,789.83,1598c-5.53,11.27,3.53,24,17.1,24h170c10.1,0,18.37,7.28,18.71,16.46l7.78,209.65c.67,18.05,27.69,22.88,35.8,6.4l175.39-356.07c5.49-11.15-3.31-23.78-16.73-24l-173.76-3c-10-.18-18.14-7.53-18.36-16.66l-5-206.87C1000.27,1229.72,973,1224.72,964.9,1241.32Z"/></svg>